<svg id="visual" viewBox="0 0 1600 1200" width="1600" height="1200" xmlns="http://www.w3.org/2000/svg" xmlns:xlink="http://www.w3.org/1999/xlink" version="1.1"><rect x="0" y="0" width="1600" height="1200" fill="#fff"></rect><defs><linearGradient id="grad1_0" x1="25%" y1="0%" x2="100%" y2="100%"><stop offset="23.333333333333336%" stop-color="#ffffff" stop-opacity="1"></stop><stop offset="76.66666666666666%" stop-color="#ffffff" stop-opacity="1"></stop></linearGradient></defs><defs><linearGradient id="grad2_0" x1="0%" y1="0%" x2="75%" y2="100%"><stop offset="23.333333333333336%" stop-color="#ffffff" stop-opacity="1"></stop><stop offset="76.66666666666666%" stop-color="#ffffff" stop-opacity="1"></stop></linearGradient></defs><g transform="translate(1600, 0)"><path d="M0 700C-97.3 696.1 -194.6 692.2 -267.9 646.7C-341.2 601.2 -390.5 514.2 -443.4 443.4C-496.2 372.6 -552.5 318 -595.9 246.8C-639.3 175.6 -669.6 87.8 -700 0L0 0Z" fill="#5776D1"></path></g><g transform="translate(0, 1200)"><path d="M0 -700C71.5 -639.7 143 -579.4 228.8 -552.5C314.6 -525.6 414.7 -532 490 -490C565.3 -448 615.8 -357.6 646.7 -267.9C677.6 -178.1 688.8 -89.1 700 0L0 0Z" fill="#5776D1"></path></g></svg>