<svg width="1600" height="1200" viewBox="0 0 1600 1200" fill="none" xmlns="http://www.w3.org/2000/svg">
<g clip-path="url(#clip0_470_60)">
<path d="M1600 0H0V1200H1600V0Z" fill="white"/>
<path d="M950 1200C968.7 1115.6 987.4 1031.2 1025.3 962C1063.3 892.7 1120.6 838.6 1175 775C1229.4 711.5 1280.9 638.5 1351.3 599.5C1421.6 560.4 1510.8 555.2 1600 550V1200H950Z" fill="white"/>
<path d="M700 0C690.846 84 681.8 168.1 646.692 248.7C611.692 329.4 550.631 406.6 472.123 438.4C393.615 470.2 297.554 456.4 215.923 484.1C134.292 511.8 67.2 580.9 0 650V0H700Z" fill="#5776D1"/>
</g>
<defs>
<clipPath id="clip0_470_60">
<rect width="1600" height="1200" fill="white"/>
</clipPath>
</defs>
</svg>
