<svg width="1640" height="740" viewBox="0 0 1440 633" fill="none" xmlns="http://www.w3.org/2000/svg">
<path d="M0 128L21.8 154.7C43.6 181 87 235 131 240C174.5 245 218 203 262 197.3C305.5 192 349 224 393 224C436.4 224 480 192 524 160C567.3 128 611 96 655 106.7C698.2 117 742 171 785 197.3C829.1 224 873 224 916 234.7C960 245 1004 267 1047 256C1090.9 245 1135 203 1178 181.3C1221.8 160 1265 160 1309 149.3C1352.7 139 1396 117 1418 106.7L1440 96V320H1418.2C1396.4 320 1353 320 1309 320C1265.5 320 1222 320 1178 320C1134.5 320 1091 320 1047 320C1003.6 320 960 320 916 320C872.7 320 829 320 785 320C741.8 320 698 320 655 320C610.9 320 567 320 524 320C480 320 436 320 393 320C349.1 320 305 320 262 320C218.2 320 175 320 131 320C87.3 320 44 320 22 320H0V128Z" fill="#5776D1"/>
<path d="M0 441L21.8 467.7C43.6 494 87 548 131 553C174.5 558 218 516 262 510.3C305.5 505 349 537 393 537C436.4 537 480 505 524 473C567.3 441 611 409 655 419.7C698.2 430 742 484 785 510.3C829.1 537 873 537 916 547.7C960 558 1004 580 1047 569C1090.9 558 1135 516 1178 494.3C1221.8 473 1265 473 1309 462.3C1352.7 452 1396 430 1418 419.7L1440 409V313H1418.2C1396.4 313 1353 313 1309 313C1265.5 313 1222 313 1178 313C1134.5 313 1091 313 1047 313C1003.6 313 960 313 916 313C872.7 313 829 313 785 313C741.8 313 698 313 655 313C610.9 313 567 313 524 313C480 313 436 313 393 313C349.1 313 305 313 262 313C218.2 313 175 313 131 313C87.3 313 44 313 22 313H0V441Z" fill="#5776D1"/>
</svg>
