<svg width="45" height="45" viewBox="0 0 45 45" fill="none" xmlns="http://www.w3.org/2000/svg">
<path d="M14.0625 15.9688H30.9375M14.0625 21.5938H22.5M4.21875 24.425C4.21875 27.425 6.32437 30.0388 9.29437 30.4756C11.4112 30.7869 13.5506 31.025 15.7125 31.1863C16.3688 31.235 16.9687 31.58 17.3344 32.1256L22.5 39.875L27.6656 32.1256C27.8468 31.8561 28.0871 31.6315 28.3681 31.4687C28.6491 31.3059 28.9636 31.2093 29.2875 31.1863C31.4347 31.026 33.5754 30.7889 35.7056 30.4756C38.6756 30.0388 40.7812 27.4269 40.7812 24.4231V13.1394C40.7812 10.1356 38.6756 7.52375 35.7056 7.08688C31.333 6.44509 26.9194 6.12361 22.5 6.125C18.015 6.125 13.605 6.45313 9.29437 7.08688C6.32437 7.52375 4.21875 10.1375 4.21875 13.1394V24.4231V24.425Z" stroke="white" stroke-width="1.5" stroke-linecap="round" stroke-linejoin="round"/>
</svg>
